<svg width="21" height="20" viewBox="0 0 21 20" fill="none" xmlns="http://www.w3.org/2000/svg">
<g id="calendar-2-line">
<path id="Vector" d="M14 3.25H17C17.1989 3.25 17.3897 3.32902 17.5303 3.46967C17.671 3.61032 17.75 3.80109 17.75 4V16C17.75 16.1989 17.671 16.3897 17.5303 16.5303C17.3897 16.671 17.1989 16.75 17 16.75H3.5C3.30109 16.75 3.11032 16.671 2.96967 16.5303C2.82902 16.3897 2.75 16.1989 2.75 16V4C2.75 3.80109 2.82902 3.61032 2.96967 3.46967C3.11032 3.32902 3.30109 3.25 3.5 3.25H6.5V1.75H8V3.25H12.5V1.75H14V3.25ZM16.25 9.25H4.25V15.25H16.25V9.25ZM12.5 4.75H8V6.25H6.5V4.75H4.25V7.75H16.25V4.75H14V6.25H12.5V4.75ZM5.75 10.75H7.25V12.25H5.75V10.75ZM9.5 10.75H11V12.25H9.5V10.75ZM13.25 10.75H14.75V12.25H13.25V10.75Z" fill="#868C98"/>
</g>
</svg>
