<svg width="36" height="36" viewBox="0 0 36 36" fill="none" xmlns="http://www.w3.org/2000/svg">
<g id="car-line">
<path id="Vector" d="M27.45 27.6H8.55V28.95C8.55 29.308 8.40777 29.6514 8.15459 29.9046C7.90142 30.1578 7.55804 30.3 7.2 30.3H5.85C5.49196 30.3 5.14858 30.1578 4.89541 29.9046C4.64223 29.6514 4.5 29.308 4.5 28.95V15.45L7.848 7.6362C8.05634 7.1502 8.40279 6.73607 8.84437 6.4452C9.28596 6.15433 9.80323 5.99953 10.332 6H25.668C26.1963 6.00006 26.713 6.15511 27.1541 6.44595C27.5951 6.73678 27.9411 7.15062 28.1493 7.6362L31.5 15.45V28.95C31.5 29.308 31.3578 29.6514 31.1046 29.9046C30.8514 30.1578 30.508 30.3 30.15 30.3H28.8C28.442 30.3 28.0986 30.1578 27.8454 29.9046C27.5922 29.6514 27.45 29.308 27.45 28.95V27.6ZM28.8 18.15H7.2V24.9H28.8V18.15ZM7.4376 15.45H28.5624L25.6693 8.7H10.332L7.43895 15.45H7.4376ZM10.575 23.55C10.0379 23.55 9.52287 23.3367 9.14311 22.9569C8.76335 22.5771 8.55 22.0621 8.55 21.525C8.55 20.9879 8.76335 20.4729 9.14311 20.0931C9.52287 19.7133 10.0379 19.5 10.575 19.5C11.1121 19.5 11.6271 19.7133 12.0069 20.0931C12.3867 20.4729 12.6 20.9879 12.6 21.525C12.6 22.0621 12.3867 22.5771 12.0069 22.9569C11.6271 23.3367 11.1121 23.55 10.575 23.55ZM25.425 23.55C24.8879 23.55 24.3729 23.3367 23.9931 22.9569C23.6133 22.5771 23.4 22.0621 23.4 21.525C23.4 20.9879 23.6133 20.4729 23.9931 20.0931C24.3729 19.7133 24.8879 19.5 25.425 19.5C25.9621 19.5 26.4771 19.7133 26.8569 20.0931C27.2367 20.4729 27.45 20.9879 27.45 21.525C27.45 22.0621 27.2367 22.5771 26.8569 22.9569C26.4771 23.3367 25.9621 23.55 25.425 23.55Z" fill="#375DFB"/>
</g>
</svg>
