<svg width="36" height="36" viewBox="0 0 36 36" fill="none" xmlns="http://www.w3.org/2000/svg">
<g id="key-2-line">
<path id="Vector" d="M16.3232 17.768L26.9194 7.17188L28.8283 9.08077L26.9194 10.991L30.2593 14.3309L28.3504 16.2412L25.0091 12.8999L23.1002 14.8088L25.9636 17.6722L24.0547 19.5824L21.1913 16.7177L18.2321 19.6769C19.1508 21.0728 19.5192 22.7598 19.2661 24.4115C19.0131 26.0633 18.1566 27.5626 16.8623 28.6195C15.5679 29.6764 13.9276 30.2159 12.2586 30.1335C10.5896 30.0512 9.0104 29.353 7.82634 28.1738C6.63973 26.9917 5.93503 25.4105 5.84921 23.7378C5.76338 22.065 6.30256 20.42 7.36196 19.1226C8.42135 17.8252 9.92528 16.9681 11.5814 16.7177C13.2376 16.4674 14.9277 16.8417 16.3232 17.768ZM15.4633 26.2636C15.8566 25.8916 16.1713 25.4445 16.3888 24.9488C16.6064 24.4531 16.7223 23.9189 16.7299 23.3776C16.7374 22.8363 16.6363 22.299 16.4327 21.7974C16.229 21.2959 15.9268 20.8403 15.544 20.4575C15.1613 20.0747 14.7056 19.7725 14.2041 19.5689C13.7025 19.3652 13.1652 19.2641 12.6239 19.2717C12.0827 19.2792 11.5484 19.3951 11.0527 19.6127C10.557 19.8302 10.1099 20.1449 9.73794 20.5382C9.0002 21.3021 8.59198 22.3251 8.60121 23.387C8.61044 24.4489 9.03637 25.4647 9.78728 26.2156C10.5382 26.9665 11.554 27.3924 12.6159 27.4017C13.6778 27.4109 14.7008 27.0027 15.4646 26.2649L15.4633 26.2636Z" fill="#375DFB"/>
</g>
</svg>
