<svg width="36" height="36" viewBox="0 0 36 36" fill="none" xmlns="http://www.w3.org/2000/svg">
<g id="side-bar-line">
<path id="Vector" d="M5.85 5.8501H30.15C30.508 5.8501 30.8514 5.99233 31.1046 6.2455C31.3578 6.49868 31.5 6.84206 31.5 7.2001V28.8001C31.5 29.1581 31.3578 29.5015 31.1046 29.7547C30.8514 30.0079 30.508 30.1501 30.15 30.1501H5.85C5.49196 30.1501 5.14858 30.0079 4.89541 29.7547C4.64223 29.5015 4.5 29.1581 4.5 28.8001V7.2001C4.5 6.84206 4.64223 6.49868 4.89541 6.2455C5.14858 5.99233 5.49196 5.8501 5.85 5.8501ZM12.6 8.5501H7.2V27.4501H12.6V8.5501ZM15.3 8.5501V27.4501H28.8V8.5501H15.3Z" fill="#375DFB"/>
</g>
</svg>
