<svg width="36" height="36" viewBox="0 0 36 36" fill="none" xmlns="http://www.w3.org/2000/svg">
<g id="sim-card-2-line">
<path id="Vector" d="M9.89995 7.2V28.8H26.0999V12.3678L20.9321 7.2H9.89995ZM8.54995 4.5H22.0499L28.4044 10.8544C28.6576 11.1076 28.7999 11.4509 28.7999 11.8089V30.15C28.7999 30.508 28.6577 30.8514 28.4045 31.1046C28.1514 31.3578 27.808 31.5 27.4499 31.5H8.54995C8.19191 31.5 7.84853 31.3578 7.59536 31.1046C7.34218 30.8514 7.19995 30.508 7.19995 30.15V5.85C7.19995 5.49196 7.34218 5.14858 7.59536 4.89541C7.84853 4.64223 8.19191 4.5 8.54995 4.5ZM19.35 15.3V26.1H16.65V18H12.6V15.3H19.35ZM12.6 19.35H15.3V22.05H12.6V19.35ZM20.7 19.35H23.4V22.05H20.7V19.35ZM20.7 15.3H23.4V18H20.7V15.3ZM12.6 23.4H15.3V26.1H12.6V23.4ZM20.7 23.4H23.4V26.1H20.7V23.4Z" fill="#375DFB"/>
</g>
</svg>
