<svg width="21" height="20" viewBox="0 0 21 20" fill="none" xmlns="http://www.w3.org/2000/svg">
<g id="time-line">
<path id="Vector" d="M10.582 17.5C6.43978 17.5 3.08203 14.1423 3.08203 10C3.08203 5.85775 6.43978 2.5 10.582 2.5C14.7243 2.5 18.082 5.85775 18.082 10C18.082 14.1423 14.7243 17.5 10.582 17.5ZM10.582 16C12.1733 16 13.6995 15.3679 14.8247 14.2426C15.9499 13.1174 16.582 11.5913 16.582 10C16.582 8.4087 15.9499 6.88258 14.8247 5.75736C13.6995 4.63214 12.1733 4 10.582 4C8.99073 4 7.46461 4.63214 6.33939 5.75736C5.21417 6.88258 4.58203 8.4087 4.58203 10C4.58203 11.5913 5.21417 13.1174 6.33939 14.2426C7.46461 15.3679 8.99073 16 10.582 16ZM11.332 10H14.332V11.5H9.83203V6.25H11.332V10Z" fill="#868C98"/>
</g>
</svg>
