<svg width="20" height="20" viewBox="0 0 20 20" fill="none" xmlns="http://www.w3.org/2000/svg">
<g id="timer-line">
<path id="Vector" d="M14.2132 5.476L15.3029 4.38625L16.3634 5.44675L15.2737 6.5365C16.3505 7.88438 16.8704 9.59341 16.7265 11.3126C16.5826 13.0318 15.7859 14.6306 14.5 15.7808C13.2142 16.9309 11.5367 17.5451 9.81217 17.4971C8.08763 17.4491 6.44693 16.7425 5.22703 15.5226C4.00713 14.3027 3.30062 12.662 3.25262 10.9375C3.20461 9.21298 3.81874 7.53551 4.96889 6.24963C6.11903 4.96375 7.71789 4.16706 9.43708 4.02319C11.1563 3.87931 12.8653 4.39917 14.2132 5.476ZM9.99968 16C10.6891 16 11.3718 15.8642 12.0088 15.6004C12.6457 15.3365 13.2245 14.9498 13.712 14.4623C14.1995 13.9748 14.5862 13.396 14.85 12.7591C15.1139 12.1221 15.2497 11.4394 15.2497 10.75C15.2497 10.0606 15.1139 9.37787 14.85 8.74091C14.5862 8.10395 14.1995 7.5252 13.712 7.03769C13.2245 6.55018 12.6457 6.16347 12.0088 5.89963C11.3718 5.6358 10.6891 5.5 9.99968 5.5C8.60729 5.5 7.27193 6.05312 6.28737 7.03769C5.3028 8.02226 4.74968 9.35761 4.74968 10.75C4.74968 12.1424 5.3028 13.4777 6.28737 14.4623C7.27193 15.4469 8.60729 16 9.99968 16ZM9.24968 7H10.7497V11.5H9.24968V7ZM6.99968 1.75H12.9997V3.25H6.99968V1.75Z" fill="#525866"/>
</g>
</svg>
