<svg width="20" height="20" viewBox="0 0 20 20" fill="none" xmlns="http://www.w3.org/2000/svg">
<g id="verified-fill">
<path id="Vector" d="M8.75358 3.81504C7.87761 3.53147 6.92534 3.92591 6.50643 4.74584L6.00282 5.73158C5.94298 5.8487 5.84772 5.94396 5.7306 6.00379L4.74487 6.50741C3.92493 6.92631 3.53049 7.87858 3.81406 8.75456L4.15497 9.80768C4.19548 9.93281 4.19548 10.0676 4.15497 10.1927L3.81406 11.2458C3.53049 12.1218 3.92493 13.0741 4.74487 13.493L5.7306 13.9966C5.84772 14.0564 5.94298 14.1517 6.00282 14.2688L6.50643 15.2546C6.92534 16.0745 7.87761 16.4689 8.75358 16.1854L9.80671 15.8444C9.93183 15.8039 10.0666 15.8039 10.1917 15.8444L11.2448 16.1854C12.1208 16.4689 13.0731 16.0745 13.492 15.2546L13.9956 14.2688C14.0555 14.1517 14.1507 14.0564 14.2678 13.9966L15.2536 13.493C16.0735 13.0741 16.468 12.1218 16.1844 11.2458L15.8435 10.1927C15.803 10.0676 15.803 9.93281 15.8435 9.80768L16.1844 8.75456C16.468 7.87858 16.0735 6.92631 15.2536 6.50741L14.2678 6.00379C14.1507 5.94396 14.0555 5.8487 13.9956 5.73158L13.492 4.74584C13.0731 3.92591 12.1208 3.53147 11.2448 3.81504L10.1917 4.15595C10.0666 4.19645 9.93183 4.19646 9.80671 4.15595L8.75358 3.81504ZM6.72406 9.84849L7.60795 8.96456L9.37571 10.7324L12.9113 7.19684L13.7951 8.08072L9.37571 12.5001L6.72406 9.84849Z" fill="#35B9E9"/>
</g>
</svg>
