<svg width="40" height="40" viewBox="0 0 40 40" fill="none" xmlns="http://www.w3.org/2000/svg">
    <g clip-path="url(#clip0_530_2797)">
      <rect y="-0.000244141" width="40" height="40" rx="20" fill="#C2D6FF"/>
      <path d="M13.7772 14.8347C13.8818 15.0984 14.0529 15.34 14.2624 15.5596C14.7589 16.0788 15.4725 16.4719 16.037 16.728C16.0358 16.7564 16.0342 16.7925 16.0322 16.8365C16.0162 17.2308 15.9721 18.2329 15.8972 19.4706C15.7598 21.7453 15.5185 24.8149 15.1563 26.3667C15.1688 26.3631 15.1776 26.3603 15.182 26.3587H15.1824C15.1824 26.3587 15.184 26.3579 15.1848 26.3579C15.1852 26.3579 15.1852 26.3575 15.1852 26.3575L15.2012 26.8427C15.2012 26.8427 18.843 32.3345 18.7549 32.7163C18.7276 32.8337 18.4459 33.1976 18.0537 33.6499C19.4484 34.1416 20.6569 33.8495 20.6569 33.8495C20.1757 33.3069 19.8114 32.8506 19.7806 32.7163C19.6924 32.3345 23.3342 26.8427 23.3342 26.8427L23.3503 26.3575L23.454 23.1937C24.3952 23.5099 25.3749 23.669 26.2568 23.4806C26.625 23.4021 26.976 23.2627 27.3002 23.0491C32.029 19.9334 24.6697 9.62988 24.6697 9.62988C24.6697 9.62988 24.6625 10.1776 24.1096 10.529C23.8948 10.6652 23.5979 10.7718 23.1872 10.8051C21.7179 10.9241 19.6135 9.95123 18.4027 9.83223C17.1918 9.71322 17.1321 9.97126 17.1321 9.97126C17.1321 9.97126 17.9859 12.7704 17.8665 13.3061C17.7475 13.8422 17.5095 14.398 17.5095 14.398C17.5095 14.398 17.0924 12.2343 16.0799 12.2143C15.0674 12.1946 13.2014 13.3859 13.7772 14.8347Z" fill="#F3BBB0" stroke="black" stroke-width="0.356161" stroke-linecap="round" stroke-linejoin="round"/>
      <path d="M14.259 43.0586H23.6879V34.1114H14.259L14.259 43.0586Z" fill="#BF9EF9" stroke="black" stroke-width="0.356161" stroke-linecap="round" stroke-linejoin="round"/>
      <path d="M6.03968 41.0769C6.7573 41.5337 9.85737 41.0533 11.4769 40.7608C10.8286 40.0676 10.351 39.5103 10.1903 39.2222C9.4639 37.92 8.26226 35.566 8.26226 35.566L10.7413 33.9637L8.58761 32.1105C8.58761 32.1105 11.0538 28.7472 12.0142 27.7583C11.9758 27.7687 11.0374 28.0232 9.7584 28.3918C7.1111 29.1543 3.00492 30.4036 2.40671 30.9818C2.1687 31.2118 1.94552 31.4862 1.74438 31.7679C1.19064 32.5432 0.804783 33.3738 0.739071 33.4832C0.64972 33.6323 5.05681 40.4515 6.03968 41.0769Z" fill="#4C70F5" stroke="black" stroke-width="0.356161" stroke-linecap="round" stroke-linejoin="round"/>
      <path d="M8.34263 32.1493C8.34263 32.1493 9.3243 34.0857 9.93293 34.7517C10.5416 35.4172 8.17394 35.7185 8.0874 36.0839C8.00125 36.4494 9.27141 42.5622 10.6209 43.4617C11.9704 44.3612 14.6373 42.2444 14.8813 41.8738C15.1254 41.5032 15.1194 35.4701 14.8813 35.2052C14.6433 34.9408 12.4733 31.6592 12.2881 31.6328C12.103 31.6063 8.34263 32.1488 8.34263 32.1488V32.1493Z" fill="#2253DD"/>
      <path d="M1.74451 31.7668C2.15881 32.0024 2.66207 32.1009 3.14248 32.0725C3.88495 32.0288 4.58614 31.7251 5.24686 31.3845C5.90759 31.0435 6.55188 30.6585 7.25908 30.4293C7.65095 30.3019 8.05764 30.2241 8.4475 30.0915C8.83737 29.9589 9.21922 29.7634 9.48447 29.4484C9.72848 29.1583 9.8563 28.752 9.75853 28.3906C7.11123 29.1531 3.00505 30.4024 2.40683 30.9806C2.16883 31.2106 1.94565 31.4851 1.74451 31.7668Z" fill="#80A1FF"/>
      <path d="M10.1903 39.2222C10.351 39.5103 10.8286 40.0676 11.4769 40.7608C9.85737 41.0533 6.7573 41.5337 6.03968 41.0769C5.05681 40.4515 0.64972 33.6323 0.739071 33.4832C0.828423 33.3342 1.51319 31.8452 2.40671 30.9818C3.29381 30.1243 11.896 27.7904 12.0142 27.7583C11.0538 28.7472 8.58761 32.1105 8.58761 32.1105L10.7413 33.9637L8.26226 35.566C8.26226 35.566 9.4639 37.92 10.1903 39.2222Z" stroke="black" stroke-width="0.356161" stroke-linecap="round" stroke-linejoin="round"/>
      <path d="M14.2611 15.5588C14.0515 15.3392 13.8804 15.0976 13.7759 14.834C13.2001 13.3851 15.0661 12.1939 16.0786 12.2135C17.0911 12.2335 17.5082 14.3972 17.5082 14.3972C17.5082 14.3972 17.7462 13.8415 17.8652 13.3054C17.9846 12.7697 17.1308 9.9705 17.1308 9.9705C17.1308 9.9705 17.1905 9.71246 18.4013 9.83146C19.6122 9.95047 21.7166 10.9233 23.1859 10.8043C24.6548 10.6849 24.6684 9.62912 24.6684 9.62912C24.6684 9.62912 25.3111 9.0894 25.7687 8.29525C26.2795 7.40895 26.56 6.2061 25.4593 5.08419C24.3903 3.99394 23.3962 4.20109 22.4218 4.77847C21.5375 5.30256 20.6692 6.13237 19.7753 6.57433C19.6442 6.63924 19.5036 6.69493 19.355 6.74341C17.3688 7.39652 13.9181 6.7927 12.4712 9.10383C12.3338 9.3238 12.2216 9.54257 12.1323 9.76054C11.2131 12.0044 12.7437 14.1143 14.2611 15.5588Z" fill="#6D1249" stroke="black" stroke-width="0.356161" stroke-linecap="round" stroke-linejoin="round"/>
      <path d="M15.0616 26.7243C15.0936 26.6173 15.1249 26.4979 15.1549 26.3681C15.1549 26.3673 15.1549 26.3665 15.1557 26.3657" stroke="black" stroke-width="0.356161" stroke-linecap="round" stroke-linejoin="round"/>
      <path d="M28.3438 39.2222C28.1831 39.5103 27.7055 40.0676 27.0572 40.7608C28.6768 41.0533 31.7768 41.5337 32.4945 41.0769C33.4773 40.4515 37.8844 33.6323 37.7951 33.4832C37.7057 33.3342 37.0209 31.8452 36.1274 30.9818C35.2403 30.1243 26.6381 27.7904 26.5199 27.7583C27.4803 28.7472 29.9465 32.1105 29.9465 32.1105L27.7929 33.9637L30.2719 35.566C30.2719 35.566 29.0702 37.92 28.3438 39.2222Z" fill="#4C70F5" stroke="black" stroke-width="0.356161" stroke-linecap="round" stroke-linejoin="round"/>
      <path d="M28.3438 39.2222C28.1831 39.5103 27.7055 40.0676 27.0572 40.7608C28.6768 41.0533 31.7768 41.5337 32.4945 41.0769C33.4757 40.4523 37.872 33.6519 37.7955 33.484C37.7955 33.4836 37.7951 33.4836 37.7951 33.4832C37.7057 33.3342 37.0209 31.8452 36.1274 30.9818C35.6009 30.4729 32.357 29.444 29.7818 28.6851C28.018 28.1646 26.568 27.7715 26.5199 27.7583C27.4803 28.7472 29.9465 32.1105 29.9465 32.1105L27.7929 33.9637L30.2719 35.566C30.2719 35.566 29.0702 37.92 28.3438 39.2222Z" fill="#4C70F5" stroke="black" stroke-width="0.356161" stroke-linecap="round" stroke-linejoin="round"/>
      <path d="M8.26227 35.565C8.26227 35.565 9.46391 37.919 10.1903 39.2212C10.351 39.5093 10.8286 40.0667 11.4769 40.7599C13.7576 43.1996 18.1451 47.3178 18.2036 47.2593C18.248 47.2148 16.7996 41.2952 15.5951 36.1124C15.4124 35.3254 15.2349 34.5553 15.0694 33.8257C14.4897 31.2697 14.0533 29.2062 14.0217 28.6288C13.9307 26.9688 14.9637 26.4495 15.1548 26.3678C15.1636 26.3642 15.1708 26.3614 15.1756 26.3594C15.1708 26.361 15.164 26.363 15.1556 26.3654C15.0101 26.4123 14.3458 26.6282 13.6731 26.8831C13.1121 27.0958 12.5451 27.3354 12.2687 27.527C12.205 27.571 12.1184 27.6504 12.0142 27.7574C11.0538 28.7462 8.58762 32.1096 8.58762 32.1096L10.7413 33.9627L8.26227 35.565Z" fill="#4C70F5" stroke="black" stroke-width="0.356161" stroke-linecap="round" stroke-linejoin="round"/>
      <path d="M26.5183 27.7576C26.5183 27.7576 26.5191 27.7576 26.5207 27.7584" stroke="black" stroke-width="0.356161" stroke-linecap="round" stroke-linejoin="round"/>
      <path d="M17.4005 34.3729C17.4005 34.3729 18.1565 36.6732 18.5572 36.8956C18.9579 37.1183 20.1447 37.1628 20.2637 37.059C20.3823 36.9549 21.5772 34.8401 21.5772 34.8401C21.2594 34.5115 20.9377 34.1653 20.6564 33.848C20.6564 33.848 19.4479 34.1401 18.0532 33.6484C17.8568 33.8748 17.6336 34.1228 17.4005 34.3729Z" fill="#E86F3A" stroke="black" stroke-width="0.356161" stroke-linecap="round" stroke-linejoin="round"/>
      <path d="M17.1175 42.5611C17.1395 42.6533 19.2936 46.0459 19.4887 46.0699C19.6838 46.0944 21.2505 43.2579 21.2505 43.2579L20.2636 37.059C20.1446 37.1628 18.9578 37.1183 18.5571 36.8955C18.5571 36.8955 17.0958 42.4694 17.1175 42.5611Z" fill="#E86F3A" stroke="black" stroke-width="0.356161" stroke-linecap="round" stroke-linejoin="round"/>
      <path d="M29.7816 28.6843C30.1102 28.9291 30.4644 29.1475 30.7625 29.3691C31.4841 29.906 32.2061 30.4433 32.9278 30.9806C33.7131 31.5648 34.498 32.149 35.2834 32.7332C35.8191 33.1319 36.3913 33.5454 37.056 33.6087C37.3036 33.6323 37.564 33.5855 37.7952 33.4833C37.7952 33.4829 37.7948 33.4829 37.7948 33.4825C37.7055 33.3334 37.0207 31.8445 36.1272 30.981C35.6007 30.4722 32.3568 29.4432 29.7816 28.6843Z" fill="#80A1FF"/>
      <path d="M13.2607 29.8521C13.3957 31.329 14.0456 32.7534 15.0697 33.8257C14.49 31.2697 14.0536 29.2062 14.022 28.6288C13.931 26.9688 14.964 26.4495 15.1551 26.3678C15.1639 26.3642 15.1711 26.3614 15.1759 26.3594C15.1711 26.361 15.1643 26.363 15.1559 26.3654C15.0104 26.4123 14.3461 26.6282 13.6734 26.8831C13.3148 27.8251 13.1685 28.8484 13.2607 29.8521Z" fill="#80A1FF"/>
      <path d="M22.4224 4.77847C22.4396 4.7953 22.458 4.81053 22.4773 4.82455C22.6708 4.96759 22.92 5.00646 23.142 5.10022C23.6472 5.31378 23.9838 5.80061 24.2118 6.29906C24.4402 6.79791 24.59 7.33402 24.8705 7.80522C25.0276 8.06847 25.2672 8.33091 25.5737 8.33091C25.6422 8.33091 25.7071 8.31809 25.7693 8.29525C26.2801 7.40894 26.5606 6.2061 25.4599 5.08419C24.3909 3.99394 23.3968 4.20109 22.4224 4.77847Z" fill="#932A6E"/>
      <path d="M12.1319 9.76127C12.1804 9.81656 12.2357 9.86585 12.2978 9.90712C12.652 10.1419 13.138 10.0626 13.5082 9.85343C13.8785 9.64427 14.1726 9.32573 14.5055 9.06128C15.0693 8.61372 15.7541 8.32002 16.4669 8.21985C16.8948 8.15975 17.3303 8.16816 17.7587 8.10966C18.187 8.05156 18.6229 7.91693 18.9359 7.61883C19.1751 7.39084 19.3225 7.0727 19.3546 6.74414C17.3684 7.39725 13.9177 6.79342 12.4709 9.10455C12.3334 9.32453 12.2212 9.5433 12.1319 9.76127Z" fill="#932A6E"/>
      <path d="M8.26227 35.5661C8.26227 35.5661 9.46391 37.9201 10.1903 39.2223C10.351 39.5104 10.8286 40.0677 11.4769 40.7609C13.7576 43.2006 18.1451 47.3188 18.2036 47.2603C18.248 47.2159 16.7996 41.2962 15.5951 36.1134C14.7717 32.5706 14.0625 29.3719 14.0217 28.6299C13.9307 26.9698 14.9637 26.4506 15.1548 26.3688C15.1676 26.3636 15.1764 26.36 15.1812 26.3584C15.1768 26.36 15.168 26.3628 15.1556 26.3664C14.8887 26.4526 12.8761 27.1073 12.2687 27.528C12.205 27.5721 12.1184 27.6514 12.0142 27.7584C11.0538 28.7473 8.58762 32.1106 8.58762 32.1106L10.7413 33.9637L8.26227 35.5661Z" stroke="black" stroke-width="0.356161" stroke-linecap="round" stroke-linejoin="round"/>
      <path d="M28.3438 39.2222C28.1831 39.5103 27.7055 40.0676 27.0572 40.7608C28.6768 41.0533 31.7768 41.5337 32.4945 41.0769C33.4773 40.4515 37.8844 33.6323 37.7951 33.4832C37.7057 33.3342 37.0209 31.8452 36.1274 30.9818C35.2403 30.1243 26.6381 27.7904 26.5199 27.7583C27.4803 28.7472 29.9465 32.1105 29.9465 32.1105L27.7929 33.9637L30.2719 35.566C30.2719 35.566 29.0702 37.92 28.3438 39.2222Z" stroke="black" stroke-width="0.356161" stroke-linecap="round" stroke-linejoin="round"/>
      <path d="M26.3869 18.1624C26.5067 19.5103 26.4963 20.8702 26.35 22.2161C26.3048 22.636 26.2463 23.0607 26.2567 23.4806C26.6249 23.4021 26.9759 23.2627 27.3001 23.0491C32.0289 19.9334 24.6696 9.62988 24.6696 9.62988C24.6696 9.62988 24.6624 10.1776 24.1094 10.529C24.2737 10.7678 24.4356 10.999 24.5382 11.221C25.5479 13.4055 26.1733 15.7655 26.3869 18.1624Z" fill="#F9DFDC"/>
      <path d="M15.8965 19.4696C16.0184 19.3493 16.0981 19.1931 16.1754 19.04C16.375 18.6445 16.5753 18.2499 16.7744 17.8544C16.9027 17.6 17.0329 17.3243 16.8205 17.0743C16.631 16.8511 16.3321 16.7922 16.0316 16.8355C16.0155 17.2297 15.9715 18.2318 15.8965 19.4696Z" fill="#F09E8B"/>
      <path d="M19.1448 20.8213C19.1448 20.8213 19.3664 25.4127 23.3652 25.8723L23.4529 23.1937C23.4529 23.1937 20.0568 21.5774 19.1444 20.8213H19.1448Z" fill="#ED7D66"/>
      <path d="M16.8352 14.7285C16.7623 14.4228 16.5623 14.1832 16.2654 13.962C15.9685 13.7409 15.4817 13.6339 15.1042 13.7769C14.8923 13.8574 14.7288 14.0333 14.7845 14.2028C14.8326 14.3503 15.0221 14.4465 15.204 14.5186C15.7445 14.7329 16.1596 14.7706 16.7739 14.7999" fill="#ED7D66"/>
      <path d="M30.0127 32.1493C30.0127 32.1493 29.031 34.0857 28.4224 34.7517C27.8138 35.4172 30.1814 35.7185 30.2679 36.0839C30.3541 36.4494 29.0839 42.5622 27.7344 43.4617C26.3849 44.3612 23.718 42.2444 23.474 41.8738C23.23 41.5032 23.236 35.4701 23.474 35.2052C23.712 34.9408 25.8821 31.6592 26.0672 31.6328C26.2523 31.6063 30.0127 32.1488 30.0127 32.1488V32.1493Z" fill="#2253DD"/>
      <path d="M20.3311 47.2603C20.3896 47.3188 24.7771 43.2006 27.0578 40.7609C27.7061 40.0677 28.1837 39.5104 28.3444 39.2223C29.0708 37.9201 30.2724 35.5661 30.2724 35.5661L27.7934 33.9637L29.9471 32.1106C29.9471 32.1106 27.4809 28.7473 26.5205 27.7584C26.4163 27.6514 26.3297 27.5721 26.266 27.528C26.2316 27.5039 26.1927 27.4795 26.1498 27.4543C25.4839 27.0632 23.868 26.5255 23.45 26.3897C23.3976 26.3724 23.3643 26.362 23.3535 26.3584C23.3639 26.3624 23.3959 26.3748 23.4432 26.3985C23.7333 26.5439 24.5964 27.1065 24.513 28.6299C24.475 29.3186 23.8615 32.1226 23.1155 35.3545C23.0574 35.6053 22.9989 35.8586 22.9396 36.1134C21.7351 41.2962 20.2867 47.2159 20.3311 47.2603Z" fill="#4C70F5" stroke="black" stroke-width="0.356161" stroke-linecap="round" stroke-linejoin="round"/>
      <path d="M23.1141 35.3535C23.1161 35.3623 23.1177 35.3715 23.1197 35.3804C24.0473 34.1443 24.8295 32.8368 25.4553 31.4777C25.8023 30.7236 26.1028 29.9491 26.2182 29.1402C26.2975 28.5864 26.2875 28.0154 26.1485 27.4533C25.4826 27.0622 23.8666 26.5245 23.4487 26.3887C23.4463 26.3915 23.4439 26.3943 23.4419 26.3975C23.732 26.5429 24.5951 27.1055 24.5117 28.6289C24.4736 29.3177 23.8602 32.1216 23.1141 35.3535Z" fill="#80A1FF"/>
      <path d="M20.3311 47.2603C20.3896 47.3188 24.7771 43.2006 27.0578 40.7609C27.7061 40.0677 28.1837 39.5104 28.3444 39.2223C29.0708 37.9201 30.2724 35.5661 30.2724 35.5661L27.7934 33.9637L29.9471 32.1106C29.9471 32.1106 27.4809 28.7473 26.5205 27.7584C26.4163 27.6514 26.3297 27.5721 26.266 27.528C25.6301 27.0876 23.4552 26.3909 23.3535 26.3584C23.428 26.3864 24.61 26.8593 24.513 28.6299C24.4722 29.3719 23.763 32.5706 22.9396 36.1134C21.7351 41.2962 20.2867 47.2159 20.3311 47.2603Z" stroke="black" stroke-width="0.356161" stroke-linecap="round" stroke-linejoin="round"/>
      <path d="M23.4541 23.1937C21.2308 22.4465 19.2217 20.8213 19.2217 20.8213" stroke="black" stroke-width="0.356161" stroke-linecap="round" stroke-linejoin="round"/>
      <path d="M16.0365 16.7271C16.545 16.9578 16.9332 17.0772 16.9332 17.0772" stroke="black" stroke-width="0.356161" stroke-linecap="round" stroke-linejoin="round"/>
      <path d="M13.7772 14.8347C13.8818 15.0984 14.0529 15.34 14.2624 15.5596C14.7589 16.0788 15.4725 16.4719 16.037 16.728C16.007 17.478 15.7377 23.8765 15.1563 26.3667C15.1688 26.3631 15.1776 26.3603 15.182 26.3587H15.1824C15.1824 26.3587 15.184 26.3579 15.1848 26.3579C15.1852 26.3579 15.1852 26.3575 15.1852 26.3575L15.2012 26.8427C15.2012 26.8427 18.843 32.3345 18.7549 32.7163C18.7276 32.8337 18.4459 33.1976 18.0537 33.6499C19.4484 34.1416 20.6569 33.8495 20.6569 33.8495C20.1757 33.3069 19.8114 32.8506 19.7806 32.7163C19.6924 32.3345 23.3342 26.8427 23.3342 26.8427L23.3503 26.3575L23.454 23.1937C24.7883 23.6421 26.1995 23.7743 27.3002 23.0491C32.029 19.9334 24.6697 9.62988 24.6697 9.62988C24.6697 9.62988 24.6561 10.6857 23.1872 10.8051C21.7179 10.9241 19.6135 9.95123 18.4027 9.83223C17.1918 9.71322 17.1321 9.97126 17.1321 9.97126C17.1321 9.97126 17.9859 12.7704 17.8665 13.3061C17.7475 13.8422 17.5095 14.398 17.5095 14.398C17.5095 14.398 17.0924 12.2343 16.0799 12.2143C15.0674 12.1946 13.2014 13.3859 13.7772 14.8347Z" stroke="black" stroke-width="0.356161" stroke-linecap="round" stroke-linejoin="round"/>
      <path d="M19.7796 32.6391C19.8104 32.7733 20.1746 33.2297 20.6558 33.7722C20.9371 34.0896 21.2589 34.4357 21.5766 34.7643C22.1059 35.3108 22.6264 35.8077 22.9385 36.0365C23.0643 35.4943 23.1877 34.9602 23.3064 34.4418C23.9635 31.5721 24.4775 29.1816 24.512 28.5529C24.609 26.7823 23.427 26.3095 23.3524 26.2815C23.3524 26.2815 23.3508 26.2807 23.35 26.2807C23.3496 26.2807 23.3496 26.2803 23.3496 26.2803L23.3468 26.37L23.3336 26.7655C23.3336 26.7655 19.6918 32.2572 19.78 32.6391H19.7796Z" fill="#F5D256" stroke="black" stroke-width="0.356161" stroke-linecap="round" stroke-linejoin="round"/>
      <path d="M14.0223 28.5529C14.0572 29.1832 14.5737 31.5853 15.2332 34.4654C15.3502 34.9767 15.4716 35.5028 15.5958 36.0365C15.9957 35.7432 16.7369 35.0107 17.4009 34.2971C17.6341 34.0471 17.8572 33.7991 18.0536 33.5727C18.4458 33.1203 18.7275 32.7565 18.7548 32.6391C18.8429 32.2572 15.2011 26.7655 15.2011 26.7655L15.1867 26.33L15.1851 26.2803C15.1851 26.2803 15.1851 26.2807 15.1847 26.2807C15.1839 26.2807 15.1831 26.2811 15.1823 26.2815H15.1819C15.1771 26.2831 15.1683 26.2867 15.1554 26.2919C14.9643 26.3736 13.9314 26.8929 14.0223 28.5529Z" fill="#F5D256" stroke="black" stroke-width="0.356161" stroke-linecap="round" stroke-linejoin="round"/>
      <path d="M26.9712 5.1792C27.444 5.64359 27.5894 6.37764 27.4404 7.02354C27.2913 7.66943 26.8814 8.23159 26.3882 8.67394C25.895 9.11629 25.3172 9.45287 24.7442 9.78623C25.2851 9.9409 26.0051 9.99499 26.5268 9.78503C27.0485 9.57507 27.4969 9.18721 27.7798 8.70119" stroke="black" stroke-width="0.356161" stroke-linecap="round" stroke-linejoin="round"/>
      <path d="M14.2611 15.5588C14.0516 15.3392 13.8805 15.0976 13.7759 14.8339C13.2001 13.3851 15.0661 12.1939 16.0786 12.2135C17.0911 12.2335 17.5083 14.3972 17.5083 14.3972C17.5083 14.3972 17.7463 13.8415 17.8653 13.3053C17.9847 12.7696 17.1308 9.97047 17.1308 9.97047C17.1308 9.97047 17.1905 9.71243 18.4014 9.83143C19.6122 9.95044 21.7166 10.9233 23.1859 10.8043C24.6548 10.6849 24.6684 9.62909 24.6684 9.62909C24.6684 9.62909 27.5461 7.21178 25.4594 5.08416C23.4199 3.00463 21.6537 5.64512 19.7753 6.5743C17.8969 7.50348 14.0267 6.61957 12.4713 9.1038C10.9158 11.5884 12.5967 13.9741 14.2611 15.5588Z" stroke="black" stroke-width="0.356161" stroke-linecap="round" stroke-linejoin="round"/>
      <path d="M14.0223 28.5529C14.0572 29.1832 14.5737 31.5853 15.2332 34.4654C15.363 34.3917 15.4672 34.2699 15.5349 34.1352C15.6291 33.9473 15.6619 33.7345 15.6851 33.525C15.7981 32.494 15.7 31.4406 15.3987 30.4482C15.1783 29.7233 14.8501 29.0269 14.7339 28.2785C14.6282 27.5977 14.7351 26.8344 15.1867 26.33L15.1851 26.2803C15.1851 26.2803 15.1851 26.2807 15.1847 26.2807C15.1839 26.2807 15.1831 26.2811 15.1823 26.2815H15.1819C15.1771 26.2831 15.1683 26.2867 15.1554 26.2919C14.9643 26.3736 13.9314 26.8929 14.0223 28.5529Z" fill="#CEA625"/>
      <path d="M23.3069 34.4418C23.964 31.5721 24.4781 29.1816 24.5125 28.5529C24.6095 26.7823 23.4275 26.3095 23.353 26.2815C23.353 26.2815 23.3514 26.2807 23.3506 26.2807C23.3502 26.2807 23.3502 26.2803 23.3502 26.2803L23.3474 26.37C23.6671 26.4646 23.9103 26.7679 23.9997 27.0957C24.0998 27.4651 24.0401 27.8582 23.9504 28.23C23.7741 28.958 23.4856 29.6524 23.2368 30.3588C22.9883 31.0652 22.7772 31.7961 22.7648 32.5449C22.7535 33.2137 22.9166 33.904 23.3073 34.4418H23.3069Z" fill="#CEA625"/>
      <path d="M19.7796 32.7157C19.8104 32.85 20.1746 33.3064 20.6558 33.8489C20.9371 34.1662 21.2589 34.5124 21.5766 34.841C22.1059 35.3875 22.6264 35.8843 22.9385 36.1131C23.7619 32.5703 24.4711 29.3717 24.512 28.6296C24.609 26.859 23.427 26.3862 23.3524 26.3581C23.3524 26.3581 23.3508 26.3573 23.35 26.3573C23.3496 26.3573 23.3496 26.3569 23.3496 26.3569L23.3336 26.8422C23.3336 26.8422 19.6918 32.3339 19.78 32.7157H19.7796Z" stroke="black" stroke-width="0.356161" stroke-linecap="round" stroke-linejoin="round"/>
      <path d="M14.0223 28.6296C14.0632 29.3717 14.7724 32.5703 15.5958 36.1131C15.9957 35.8198 16.7369 35.0874 17.4009 34.3738C17.6341 34.1237 17.8572 33.8757 18.0536 33.6493C18.4458 33.197 18.7275 32.8331 18.7548 32.7157C18.8429 32.3339 15.2011 26.8422 15.2011 26.8422L15.1851 26.3569C15.1851 26.3569 15.1851 26.3573 15.1847 26.3573C15.1839 26.3573 15.1831 26.3573 15.1823 26.3581H15.1819C15.1771 26.3597 15.1683 26.3633 15.1554 26.3686C14.9643 26.4503 13.9314 26.9696 14.0223 28.6296Z" stroke="black" stroke-width="0.356161" stroke-linecap="round" stroke-linejoin="round"/>
      <path d="M16.7649 14.683C16.4479 14.0691 15.7516 13.6725 15.0616 13.7133" stroke="black" stroke-width="0.356161" stroke-linecap="round" stroke-linejoin="round"/>
      <path d="M16.0389 14.092C15.8001 14.1838 15.5925 14.3553 15.4571 14.5725" stroke="black" stroke-width="0.356161" stroke-linecap="round" stroke-linejoin="round"/>
      <path d="M24.1388 19.3162C24.0506 19.3089 23.3134 19.6291 22.4856 18.8882C21.6578 18.1474 22.0056 17.3127 22.0056 17.3127" stroke="black" stroke-width="0.356161" stroke-linecap="round" stroke-linejoin="round"/>
      <path d="M22.5466 17.2659C22.5466 17.2659 21.9772 17.0339 21.4968 17.6417" stroke="black" stroke-width="0.356161" stroke-linecap="round" stroke-linejoin="round"/>
      <path d="M24.7299 15.2046C24.7299 15.2046 25.9067 17.0016 25.5705 17.3134C25.2343 17.6251 24.4105 17.0778 24.4105 17.0778" stroke="black" stroke-width="0.356161" stroke-linecap="round" stroke-linejoin="round"/>
    </g>
    <defs>
      <clipPath id="clip0_530_2797">
        <rect y="-0.000244141" width="40" height="40" rx="20" fill="white"/>
      </clipPath>
    </defs>
  </svg>