<svg width="24" height="24" viewBox="0 0 24 24" fill="none" xmlns="http://www.w3.org/2000/svg">
<g id="customer-service-2-fill">
<path id="Vector" d="M20.1001 8.40011C20.5775 8.40011 21.0353 8.58975 21.3729 8.92731C21.7105 9.26488 21.9001 9.72272 21.9001 10.2001V13.8001C21.9001 14.2775 21.7105 14.7353 21.3729 15.0729C21.0353 15.4105 20.5775 15.6001 20.1001 15.6001H19.1443C18.9249 17.3401 18.078 18.9402 16.7627 20.1001C15.4473 21.26 13.7538 21.9001 12.0001 21.9001V20.1001C13.4323 20.1001 14.8058 19.5312 15.8185 18.5185C16.8312 17.5058 17.4001 16.1323 17.4001 14.7001V9.30011C17.4001 7.86794 16.8312 6.49443 15.8185 5.48173C14.8058 4.46903 13.4323 3.90011 12.0001 3.90011C10.5679 3.90011 9.19442 4.46903 8.18172 5.48173C7.16902 6.49443 6.6001 7.86794 6.6001 9.30011V15.6001H3.9001C3.42271 15.6001 2.96487 15.4105 2.62731 15.0729C2.28974 14.7353 2.1001 14.2775 2.1001 13.8001V10.2001C2.1001 9.72272 2.28974 9.26488 2.62731 8.92731C2.96487 8.58975 3.42271 8.40011 3.9001 8.40011H4.8559C5.07553 6.66031 5.92247 5.06045 7.23781 3.90071C8.55316 2.74098 10.2465 2.10107 12.0001 2.10107C13.7537 2.10107 15.447 2.74098 16.7624 3.90071C18.0777 5.06045 18.9247 6.66031 19.1443 8.40011H20.1001ZM8.1841 15.4066L9.1381 13.8802C9.99587 14.4175 10.9879 14.7017 12.0001 14.7001C13.0123 14.7017 14.0043 14.4175 14.8621 13.8802L15.8161 15.4066C14.6724 16.1231 13.3497 16.5022 12.0001 16.5001C10.6505 16.5022 9.32776 16.1231 8.1841 15.4066Z" fill="#0A0D14"/>
</g>
</svg>
