<svg width="48" height="48" viewBox="0 0 48 48" fill="none" xmlns="http://www.w3.org/2000/svg">
<g id="Avatar">
<g clip-path="url(#clip0_302_3532)">
<rect width="48" height="48" rx="24" fill="#C2D6FF"/>
<g id="Illustration">
<path id="Vector" d="M16.5324 17.8022C16.6579 18.1185 16.8632 18.4085 17.1147 18.672C17.7104 19.2951 18.5668 19.7668 19.2442 20.074C19.2428 20.1082 19.2409 20.1514 19.2385 20.2043C19.2192 20.6775 19.1664 21.88 19.0764 23.3652C18.9115 26.0948 18.6221 29.7784 18.1874 31.6406C18.2023 31.6362 18.2129 31.6329 18.2182 31.631H18.2187C18.2187 31.631 18.2206 31.63 18.2215 31.63C18.222 31.63 18.222 31.6295 18.222 31.6295L18.2413 32.2118C18.2413 32.2118 22.6114 38.8019 22.5056 39.2601C22.4729 39.401 22.1349 39.8375 21.6642 40.3804C23.3379 40.9704 24.7881 40.6198 24.7881 40.6198C24.2106 39.9688 23.7735 39.4212 23.7365 39.2601C23.6307 38.8019 28.0009 32.2118 28.0009 32.2118L28.0201 31.6295L28.1447 27.833C29.2741 28.2123 30.4497 28.4032 31.508 28.1772C31.9498 28.083 32.371 27.9157 32.76 27.6594C38.4346 23.9206 29.6035 11.5563 29.6035 11.5563C29.6035 11.5563 29.5948 12.2136 28.9313 12.6353C28.6736 12.7988 28.3173 12.9267 27.8244 12.9666C26.0613 13.1094 23.536 11.942 22.083 11.7992C20.63 11.6564 20.5583 11.966 20.5583 11.966C20.5583 11.966 21.5829 15.325 21.4397 15.9678C21.2969 16.6112 21.0112 17.2781 21.0112 17.2781C21.0112 17.2781 20.5107 14.6817 19.2957 14.6576C18.0807 14.6341 15.8415 16.0635 16.5324 17.8022Z" fill="#F3BBB0" stroke="black" stroke-width="0.427393" stroke-linecap="round" stroke-linejoin="round"/>
<path id="Vector_2" d="M17.1112 51.6713H28.4258V40.9346H17.1112V51.6713Z" fill="#BF9EF9" stroke="black" stroke-width="0.427393" stroke-linecap="round" stroke-linejoin="round"/>
<path id="Vector_3" d="M7.24808 49.2929C8.10923 49.841 11.8293 49.2645 13.7728 48.9135C12.9948 48.0817 12.4217 47.4129 12.2289 47.0672C11.3571 45.5045 9.91518 42.6797 9.91518 42.6797L12.89 40.757L10.3056 38.5332C10.3056 38.5332 13.265 34.4972 14.4176 33.3105C14.3714 33.323 13.2453 33.6284 11.7105 34.0707C8.53379 34.9857 3.60637 36.4849 2.88851 37.1787C2.60291 37.4547 2.33509 37.7841 2.09372 38.1221C1.42923 39.0525 0.966204 40.0492 0.88735 40.1805C0.780127 40.3593 6.06864 48.5424 7.24808 49.2929Z" fill="#4C70F5" stroke="black" stroke-width="0.427393" stroke-linecap="round" stroke-linejoin="round"/>
<path id="Vector_4" d="M10.011 38.5804C10.011 38.5804 11.189 40.9042 11.9193 41.7033C12.6497 42.502 9.80854 42.8635 9.70468 43.3021C9.60131 43.7406 11.1255 51.0759 12.7449 52.1553C14.3643 53.2348 17.5646 50.6946 17.8574 50.2499C18.1502 49.8051 18.143 42.5654 17.8574 42.2476C17.5718 41.9303 14.9677 37.9924 14.7456 37.9606C14.5234 37.9289 10.011 38.5799 10.011 38.5799V38.5804Z" fill="#2253DD"/>
<path id="Vector_5" d="M2.09375 38.1211C2.59092 38.4038 3.19482 38.5221 3.77132 38.488C4.66228 38.4356 5.50371 38.0711 6.29658 37.6624C7.08944 37.2532 7.8626 36.7912 8.71124 36.5161C9.18148 36.3632 9.66951 36.27 10.1373 36.1108C10.6052 35.9517 11.0634 35.717 11.3817 35.3391C11.6745 34.991 11.8279 34.5034 11.7106 34.0697C8.53382 34.9847 3.6064 36.4839 2.88854 37.1777C2.60294 37.4537 2.33512 37.7831 2.09375 38.1211Z" fill="#80A1FF"/>
<path id="Vector_6" d="M12.2289 47.0672C12.4217 47.4129 12.9948 48.0817 13.7728 48.9135C11.8293 49.2645 8.10923 49.841 7.24808 49.2929C6.06864 48.5424 0.780127 40.3593 0.88735 40.1805C0.994572 40.0016 1.81629 38.2149 2.88851 37.1787C3.95304 36.1498 14.2757 33.349 14.4176 33.3105C13.265 34.4972 10.3056 38.5332 10.3056 38.5332L12.89 40.757L9.91518 42.6797C9.91518 42.6797 11.3571 45.5045 12.2289 47.0672Z" stroke="black" stroke-width="0.427393" stroke-linecap="round" stroke-linejoin="round"/>
<path id="Vector_7" d="M17.114 18.6712C16.8625 18.4077 16.6572 18.1178 16.5317 17.8014C15.8408 16.0627 18.08 14.6333 19.295 14.6568C20.51 14.6809 21.0105 17.2773 21.0105 17.2773C21.0105 17.2773 21.2961 16.6104 21.4389 15.9671C21.5822 15.3242 20.5576 11.9652 20.5576 11.9652C20.5576 11.9652 20.6292 11.6556 22.0823 11.7984C23.5353 11.9412 26.0606 13.1086 27.8237 12.9658C29.5864 12.8225 29.6027 11.5556 29.6027 11.5556C29.6027 11.5556 30.374 10.9079 30.9231 9.95491C31.5361 8.89134 31.8727 7.44793 30.5519 6.10164C29.2691 4.79334 28.0761 5.04192 26.9068 5.73478C25.8456 6.36369 24.8037 7.35946 23.731 7.8898C23.5738 7.96769 23.405 8.03453 23.2266 8.09271C20.8432 8.87644 16.7024 8.15185 14.9662 10.9252C14.8013 11.1892 14.6666 11.4517 14.5594 11.7133C13.4564 14.4058 15.2931 16.9378 17.114 18.6712Z" fill="#6D1249" stroke="black" stroke-width="0.427393" stroke-linecap="round" stroke-linejoin="round"/>
<path id="Vector_8" d="M18.0737 32.0701C18.1122 31.9417 18.1497 31.7984 18.1858 31.6427C18.1858 31.6417 18.1858 31.6407 18.1867 31.6398" stroke="black" stroke-width="0.427393" stroke-linecap="round" stroke-linejoin="round"/>
<path id="Vector_9" d="M34.0129 47.0672C33.8201 47.4129 33.247 48.0817 32.469 48.9135C34.4125 49.2645 38.1325 49.841 38.9937 49.2929C40.1731 48.5424 45.4616 40.3593 45.3544 40.1805C45.2472 40.0016 44.4255 38.2149 43.3533 37.1787C42.2887 36.1498 31.9661 33.349 31.8242 33.3105C32.9767 34.4972 35.9362 38.5332 35.9362 38.5332L33.3518 40.757L36.3266 42.6797C36.3266 42.6797 34.8846 45.5045 34.0129 47.0672Z" fill="#4C70F5" stroke="black" stroke-width="0.427393" stroke-linecap="round" stroke-linejoin="round"/>
<path id="Vector_10" d="M34.0129 47.0672C33.8201 47.4129 33.247 48.0817 32.469 48.9135C34.4125 49.2645 38.1325 49.841 38.9937 49.2929C40.1712 48.5433 45.4467 40.3829 45.3549 40.1814C45.3549 40.1809 45.3544 40.1809 45.3544 40.1805C45.2472 40.0016 44.4255 38.2149 43.3533 37.1787C42.7215 36.5681 38.8288 35.3333 35.7386 34.4227C33.622 33.7981 31.8819 33.3264 31.8242 33.3105C32.9767 34.4972 35.9362 38.5332 35.9362 38.5332L33.3518 40.757L36.3266 42.6797C36.3266 42.6797 34.8846 45.5045 34.0129 47.0672Z" fill="#4C70F5" stroke="black" stroke-width="0.427393" stroke-linecap="round" stroke-linejoin="round"/>
<path id="Vector_11" d="M9.91504 42.679C9.91504 42.679 11.357 45.5038 12.2287 47.0665C12.4215 47.4122 12.9947 48.081 13.7726 48.9128C16.5094 51.8405 21.7744 56.7824 21.8446 56.7122C21.898 56.6588 20.1598 49.5552 18.7145 43.3358C18.4952 42.3915 18.2822 41.4674 18.0836 40.5918C17.3879 37.5247 16.8643 35.0484 16.8263 34.3556C16.7172 32.3636 17.9567 31.7404 18.1861 31.6423C18.1966 31.638 18.2053 31.6346 18.2111 31.6322C18.2053 31.6342 18.1971 31.6366 18.187 31.6395C18.0125 31.6957 17.2153 31.9549 16.408 32.2607C15.7349 32.516 15.0545 32.8035 14.7227 33.0333C14.6463 33.0862 14.5424 33.1814 14.4174 33.3098C13.2649 34.4965 10.3055 38.5325 10.3055 38.5325L12.8899 40.7562L9.91504 42.679Z" fill="#4C70F5" stroke="black" stroke-width="0.427393" stroke-linecap="round" stroke-linejoin="round"/>
<path id="Vector_12" d="M31.8223 33.3097C31.8223 33.3097 31.8231 33.3097 31.8247 33.3105" stroke="black" stroke-width="0.427393" stroke-linecap="round" stroke-linejoin="round"/>
<path id="Vector_13" d="M20.8813 41.2488C20.8813 41.2488 21.7886 44.0091 22.2695 44.276C22.7503 44.5433 24.1745 44.5967 24.3173 44.4722C24.4596 44.3472 25.8934 41.8094 25.8934 41.8094C25.5121 41.4151 25.126 40.9997 24.7885 40.6189C24.7885 40.6189 23.3383 40.9694 21.6646 40.3794C21.429 40.6511 21.1612 40.9487 20.8813 41.2488Z" fill="#E86F3A" stroke="black" stroke-width="0.427393" stroke-linecap="round" stroke-linejoin="round"/>
<path id="Vector_14" d="M20.5418 51.0739C20.5682 51.1844 23.1531 55.2555 23.3873 55.2844C23.6214 55.3137 25.5014 51.91 25.5014 51.91L24.3172 44.4713C24.1744 44.5958 22.7502 44.5424 22.2694 44.2751C22.2694 44.2751 20.5158 50.9637 20.5418 51.0739Z" fill="#E86F3A" stroke="black" stroke-width="0.427393" stroke-linecap="round" stroke-linejoin="round"/>
<path id="Vector_15" d="M35.7388 34.4221C36.133 34.7159 36.5581 34.978 36.9158 35.2439C37.7818 35.8881 38.6482 36.5329 39.5141 37.1777C40.4566 37.8787 41.3985 38.5798 42.3409 39.2808C42.9837 39.7592 43.6703 40.2554 44.468 40.3314C44.7652 40.3597 45.0777 40.3035 45.3551 40.1809C45.3551 40.1804 45.3546 40.1804 45.3546 40.1799C45.2474 40.0011 44.4257 38.2143 43.3535 37.1782C42.7217 36.5675 38.829 35.3328 35.7388 34.4221Z" fill="#80A1FF"/>
<path id="Vector_16" d="M15.9131 35.8235C16.0752 37.5958 16.8551 39.3051 18.084 40.5918C17.3883 37.5247 16.8647 35.0484 16.8267 34.3556C16.7176 32.3636 17.9571 31.7404 18.1865 31.6423C18.197 31.638 18.2057 31.6346 18.2115 31.6322C18.2057 31.6342 18.1975 31.6366 18.1874 31.6395C18.0129 31.6957 17.2157 31.9549 16.4084 32.2607C15.9781 33.3911 15.8026 34.6191 15.9131 35.8235Z" fill="#80A1FF"/>
<path id="Vector_17" d="M26.9072 5.73478C26.9279 5.75497 26.95 5.77324 26.9731 5.79007C27.2053 5.96172 27.5044 6.00836 27.7708 6.12087C28.3771 6.37715 28.781 6.96134 29.0546 7.55948C29.3286 8.1581 29.5084 8.80143 29.845 9.36687C30.0335 9.68277 30.321 9.99771 30.6889 9.99771C30.7711 9.99771 30.849 9.98232 30.9235 9.95491C31.5365 8.89134 31.8731 7.44793 30.5523 6.10164C29.2695 4.79334 28.0766 5.04192 26.9072 5.73478Z" fill="#932A6E"/>
<path id="Vector_18" d="M14.5591 11.714C14.6173 11.7804 14.6836 11.8395 14.7581 11.889C15.1832 12.1708 15.7664 12.0756 16.2107 11.8246C16.655 11.5736 17.0079 11.1914 17.4074 10.874C18.084 10.3369 18.9057 9.98451 19.761 9.8643C20.2746 9.79218 20.7972 9.80228 21.3112 9.73208C21.8252 9.66236 22.3483 9.50081 22.7238 9.14308C23.0109 8.86949 23.1878 8.48772 23.2263 8.09345C20.8429 8.87718 16.7021 8.15259 14.9659 10.9259C14.8009 11.1899 14.6663 11.4524 14.5591 11.714Z" fill="#932A6E"/>
<path id="Vector_19" d="M9.91504 42.6798C9.91504 42.6798 11.357 45.5046 12.2287 47.0672C12.4215 47.4129 12.9947 48.0817 13.7726 48.9136C16.5094 51.8413 21.7744 56.7831 21.8446 56.7129C21.898 56.6595 20.1598 49.5559 18.7145 43.3366C17.7264 39.0852 16.8754 35.2468 16.8263 34.3563C16.7172 32.3643 17.9567 31.7412 18.1861 31.6431C18.2014 31.6368 18.212 31.6325 18.2178 31.6306C18.2125 31.6325 18.2019 31.6359 18.187 31.6402C17.8668 31.7436 15.4517 32.5292 14.7227 33.0341C14.6463 33.087 14.5424 33.1822 14.4174 33.3105C13.2649 34.4972 10.3055 38.5332 10.3055 38.5332L12.8899 40.757L9.91504 42.6798Z" stroke="black" stroke-width="0.427393" stroke-linecap="round" stroke-linejoin="round"/>
<path id="Vector_20" d="M34.0129 47.0672C33.8201 47.4129 33.247 48.0817 32.469 48.9135C34.4125 49.2645 38.1325 49.841 38.9937 49.2929C40.1731 48.5424 45.4616 40.3593 45.3544 40.1805C45.2472 40.0016 44.4255 38.2149 43.3533 37.1787C42.2887 36.1498 31.9661 33.349 31.8242 33.3105C32.9767 34.4972 35.9362 38.5332 35.9362 38.5332L33.3518 40.757L36.3266 42.6797C36.3266 42.6797 34.8846 45.5045 34.0129 47.0672Z" stroke="black" stroke-width="0.427393" stroke-linecap="round" stroke-linejoin="round"/>
<path id="Vector_21" d="M31.6651 21.7954C31.8089 23.4128 31.7964 25.0447 31.6209 26.6598C31.5665 27.1637 31.4963 27.6733 31.5088 28.1772C31.9507 28.083 32.3719 27.9157 32.7609 27.6594C38.4355 23.9206 29.6043 11.5563 29.6043 11.5563C29.6043 11.5563 29.5957 12.2136 28.9321 12.6353C29.1293 12.9219 29.3235 13.1993 29.4466 13.4657C30.6583 16.0871 31.4088 18.9191 31.6651 21.7954Z" fill="#F9DFDC"/>
<path id="Vector_22" d="M19.0767 23.3648C19.2228 23.2205 19.3185 23.033 19.4113 22.8493C19.6508 22.3748 19.8912 21.9012 20.1301 21.4266C20.284 21.1213 20.4403 20.7905 20.1854 20.4905C19.958 20.2226 19.5993 20.152 19.2387 20.2039C19.2195 20.677 19.1666 21.8795 19.0767 23.3648Z" fill="#F09E8B"/>
<path id="Vector_23" d="M22.9746 24.986C22.9746 24.986 23.2405 30.4957 28.0391 31.0472L28.1444 27.833C28.1444 27.833 24.0689 25.8933 22.9741 24.986H22.9746Z" fill="#ED7D66"/>
<path id="Vector_24" d="M20.202 17.6747C20.1145 17.3079 19.8746 17.0203 19.5183 16.7549C19.162 16.4895 18.5778 16.3611 18.1249 16.5328C17.8706 16.6294 17.6744 16.8405 17.7412 17.0439C17.7989 17.2208 18.0263 17.3362 18.2446 17.4228C18.8933 17.68 19.3914 17.7252 20.1285 17.7603" fill="#ED7D66"/>
<path id="Vector_25" d="M36.015 38.5804C36.015 38.5804 34.837 40.9042 34.1067 41.7033C33.3763 42.502 36.2175 42.8635 36.3213 43.3021C36.4247 43.7406 34.9005 51.0759 33.2811 52.1553C31.6617 53.2348 28.4614 50.6946 28.1686 50.2499C27.8758 49.8051 27.883 42.5654 28.1686 42.2476C28.4542 41.9303 31.0583 37.9924 31.2804 37.9606C31.5026 37.9289 36.015 38.5799 36.015 38.5799V38.5804Z" fill="#2253DD"/>
<path id="Vector_26" d="M24.3972 56.7129C24.4674 56.7831 29.7323 51.8413 32.4692 48.9136C33.2471 48.0817 33.8203 47.4129 34.0131 47.0672C34.8848 45.5046 36.3268 42.6798 36.3268 42.6798L33.3519 40.757L35.9363 38.5332C35.9363 38.5332 32.9769 34.4972 31.8244 33.3105C31.6994 33.1822 31.5955 33.087 31.5191 33.0341C31.4777 33.0052 31.4311 32.9759 31.3796 32.9456C30.5805 32.4763 28.6414 31.8311 28.1399 31.6681C28.0769 31.6474 28.037 31.6349 28.024 31.6306C28.0365 31.6354 28.075 31.6503 28.1317 31.6787C28.4798 31.8532 29.5155 32.5283 29.4155 34.3563C29.3698 35.1828 28.6337 38.5476 27.7384 42.4259C27.6687 42.7269 27.5985 43.0308 27.5273 43.3366C26.082 49.5559 24.3438 56.6595 24.3972 56.7129Z" fill="#4C70F5" stroke="black" stroke-width="0.427393" stroke-linecap="round" stroke-linejoin="round"/>
<path id="Vector_27" d="M27.7378 42.4252C27.7402 42.4358 27.7421 42.4468 27.7445 42.4574C28.8576 40.9741 29.7962 39.4052 30.5472 37.7743C30.9636 36.8694 31.3242 35.9399 31.4627 34.9692C31.5579 34.3047 31.5459 33.6195 31.379 32.9449C30.5799 32.4757 28.6408 31.8304 28.1393 31.6674C28.1364 31.6708 28.1335 31.6741 28.1311 31.678C28.4792 31.8525 29.5149 32.5276 29.4149 34.3556C29.3692 35.1822 28.6331 38.5469 27.7378 42.4252Z" fill="#80A1FF"/>
<path id="Vector_28" d="M24.3972 56.7129C24.4674 56.7831 29.7323 51.8413 32.4692 48.9136C33.2471 48.0817 33.8203 47.4129 34.0131 47.0672C34.8848 45.5046 36.3268 42.6798 36.3268 42.6798L33.3519 40.757L35.9363 38.5332C35.9363 38.5332 32.9769 34.4972 31.8244 33.3105C31.6994 33.1822 31.5955 33.087 31.5191 33.0341C30.756 32.5057 28.1461 31.6695 28.024 31.6306C28.1134 31.6642 29.5318 32.2316 29.4155 34.3563C29.3664 35.2468 28.5154 39.0852 27.5273 43.3366C26.082 49.5559 24.3438 56.6595 24.3972 56.7129Z" stroke="black" stroke-width="0.427393" stroke-linecap="round" stroke-linejoin="round"/>
<path id="Vector_29" d="M28.1448 27.833C25.4767 26.9362 23.0659 24.986 23.0659 24.986" stroke="black" stroke-width="0.427393" stroke-linecap="round" stroke-linejoin="round"/>
<path id="Vector_30" d="M19.2437 20.0734C19.8538 20.3503 20.3197 20.4936 20.3197 20.4936" stroke="black" stroke-width="0.427393" stroke-linecap="round" stroke-linejoin="round"/>
<path id="Vector_31" d="M16.5324 17.8022C16.6579 18.1185 16.8632 18.4085 17.1147 18.672C17.7104 19.2951 18.5668 19.7668 19.2442 20.074C19.2082 20.9741 18.8851 28.6523 18.1874 31.6406C18.2023 31.6362 18.2129 31.6329 18.2182 31.631H18.2187C18.2187 31.631 18.2206 31.63 18.2215 31.63C18.222 31.63 18.222 31.6295 18.222 31.6295L18.2413 32.2118C18.2413 32.2118 22.6114 38.8019 22.5056 39.2601C22.4729 39.401 22.1349 39.8375 21.6642 40.3804C23.3379 40.9704 24.7881 40.6198 24.7881 40.6198C24.2106 39.9688 23.7735 39.4212 23.7365 39.2601C23.6307 38.8019 28.0009 32.2118 28.0009 32.2118L28.0201 31.6295L28.1447 27.833C29.7458 28.371 31.4392 28.5297 32.76 27.6594C38.4346 23.9206 29.6035 11.5563 29.6035 11.5563C29.6035 11.5563 29.5871 12.8233 27.8244 12.9666C26.0613 13.1094 23.536 11.942 22.083 11.7992C20.63 11.6564 20.5583 11.966 20.5583 11.966C20.5583 11.966 21.5829 15.325 21.4397 15.9678C21.2969 16.6112 21.0112 17.2781 21.0112 17.2781C21.0112 17.2781 20.5107 14.6817 19.2957 14.6576C18.0807 14.6341 15.8415 16.0635 16.5324 17.8022Z" stroke="black" stroke-width="0.427393" stroke-linecap="round" stroke-linejoin="round"/>
<path id="Vector_32" d="M23.7353 39.1682C23.7723 39.3293 24.2094 39.877 24.7868 40.528C25.1244 40.9088 25.5105 41.3242 25.8918 41.7185C26.5269 42.3743 27.1515 42.9705 27.5261 43.2451C27.677 42.5945 27.8251 41.9536 27.9675 41.3314C28.756 37.8878 29.3729 35.0193 29.4142 34.2648C29.5306 32.1401 28.1122 31.5728 28.0227 31.5391C28.0227 31.5391 28.0208 31.5381 28.0199 31.5381C28.0194 31.5381 28.0194 31.5377 28.0194 31.5377L28.016 31.6454L28.0001 32.1199C28.0001 32.1199 23.63 38.71 23.7358 39.1682H23.7353Z" fill="#F5D256" stroke="black" stroke-width="0.427393" stroke-linecap="round" stroke-linejoin="round"/>
<path id="Vector_33" d="M16.8266 34.2648C16.8684 35.0212 17.4882 37.9037 18.2796 41.3598C18.42 41.9733 18.5657 42.6046 18.7148 43.2451C19.1946 42.8931 20.0842 42.0142 20.8809 41.1579C21.1607 40.8578 21.4285 40.5602 21.6641 40.2885C22.1348 39.7457 22.4729 39.3091 22.5055 39.1682C22.6113 38.71 18.2412 32.1199 18.2412 32.1199L18.2239 31.5973L18.2219 31.5377C18.2219 31.5377 18.2219 31.5381 18.2215 31.5381C18.2205 31.5381 18.2195 31.5386 18.2186 31.5391H18.2181C18.2123 31.541 18.2018 31.5453 18.1864 31.5516C17.957 31.6497 16.7175 32.2728 16.8266 34.2648Z" fill="#F5D256" stroke="black" stroke-width="0.427393" stroke-linecap="round" stroke-linejoin="round"/>
<path id="Vector_34" d="M32.3662 6.21594C32.9336 6.77321 33.1081 7.65407 32.9293 8.42915C32.7504 9.20422 32.2585 9.87881 31.6666 10.4096C31.0748 10.9405 30.3814 11.3443 29.6938 11.7444C30.343 11.93 31.207 11.9949 31.833 11.7429C32.459 11.491 32.9971 11.0256 33.3365 10.4423" stroke="black" stroke-width="0.427393" stroke-linecap="round" stroke-linejoin="round"/>
<path id="Vector_35" d="M17.114 18.6711C16.8626 18.4077 16.6573 18.1177 16.5318 17.8013C15.8408 16.0627 18.08 14.6332 19.295 14.6568C20.5101 14.6808 21.0106 17.2772 21.0106 17.2772C21.0106 17.2772 21.2962 16.6104 21.439 15.967C21.5823 15.3242 20.5577 11.9652 20.5577 11.9652C20.5577 11.9652 20.6293 11.6555 22.0823 11.7983C23.5354 11.9411 26.0606 13.1086 27.8238 12.9658C29.5864 12.8225 29.6028 11.5555 29.6028 11.5555C29.6028 11.5555 33.056 8.65475 30.5519 6.10161C28.1046 3.60616 25.9851 6.77475 23.7311 7.88977C21.477 9.00478 16.8328 7.9441 14.9662 10.9252C13.0997 13.9067 15.1167 16.7695 17.114 18.6711Z" stroke="black" stroke-width="0.427393" stroke-linecap="round" stroke-linejoin="round"/>
<path id="Vector_36" d="M16.8266 34.2648C16.8684 35.0212 17.4882 37.9037 18.2796 41.3598C18.4354 41.2713 18.5604 41.1252 18.6417 40.9636C18.7547 40.7381 18.7941 40.4828 18.822 40.2313C18.9576 38.9942 18.8398 37.7301 18.4782 36.5391C18.2138 35.6693 17.82 34.8337 17.6805 33.9355C17.5536 33.1186 17.682 32.2026 18.2239 31.5973L18.2219 31.5377C18.2219 31.5377 18.2219 31.5381 18.2215 31.5381C18.2205 31.5381 18.2195 31.5386 18.2186 31.5391H18.2181C18.2123 31.541 18.2018 31.5453 18.1864 31.5516C17.957 31.6497 16.7175 32.2728 16.8266 34.2648Z" fill="#CEA625"/>
<path id="Vector_37" d="M27.9686 41.3314C28.7571 37.8878 29.374 35.0193 29.4154 34.2648C29.5317 32.1401 28.1133 31.5728 28.0239 31.5391C28.0239 31.5391 28.0219 31.5381 28.021 31.5381C28.0205 31.5381 28.0205 31.5377 28.0205 31.5377L28.0171 31.6454C28.4008 31.7588 28.6927 32.1228 28.7999 32.5161C28.9201 32.9594 28.8485 33.4311 28.7408 33.8773C28.5292 34.751 28.183 35.5842 27.8844 36.4319C27.5863 37.2796 27.3329 38.1566 27.318 39.0552C27.3046 39.8577 27.5003 40.6862 27.9691 41.3314H27.9686Z" fill="#CEA625"/>
<path id="Vector_38" d="M23.7353 39.2595C23.7723 39.4205 24.2094 39.9682 24.7868 40.6192C25.1244 41 25.5105 41.4155 25.8918 41.8097C26.5269 42.4656 27.1515 43.0618 27.5261 43.3363C28.5141 39.0849 29.3652 35.2466 29.4142 34.3561C29.5306 32.2314 28.1122 31.664 28.0227 31.6303C28.0227 31.6303 28.0208 31.6294 28.0199 31.6294C28.0194 31.6294 28.0194 31.6289 28.0194 31.6289L28.0001 32.2112C28.0001 32.2112 23.63 38.8012 23.7358 39.2595H23.7353Z" stroke="black" stroke-width="0.427393" stroke-linecap="round" stroke-linejoin="round"/>
<path id="Vector_39" d="M16.8266 34.3561C16.8757 35.2466 17.7267 39.0849 18.7148 43.3363C19.1946 42.9844 20.0842 42.1054 20.8809 41.2491C21.1607 40.9491 21.4285 40.6514 21.6641 40.3798C22.1348 39.8369 22.4729 39.4003 22.5055 39.2595C22.6113 38.8012 18.2412 32.2112 18.2412 32.2112L18.2219 31.6289C18.2219 31.6289 18.2219 31.6294 18.2215 31.6294C18.2205 31.6294 18.2195 31.6294 18.2186 31.6303H18.2181C18.2123 31.6323 18.2018 31.6366 18.1864 31.6428C17.957 31.7409 16.7175 32.3641 16.8266 34.3561Z" stroke="black" stroke-width="0.427393" stroke-linecap="round" stroke-linejoin="round"/>
<path id="Vector_40" d="M20.1177 17.6202C19.7374 16.8835 18.9017 16.4075 18.0737 16.4566" stroke="black" stroke-width="0.427393" stroke-linecap="round" stroke-linejoin="round"/>
<path id="Vector_41" d="M19.2475 16.911C18.9609 17.0211 18.7118 17.2269 18.5493 17.4875" stroke="black" stroke-width="0.427393" stroke-linecap="round" stroke-linejoin="round"/>
<g id="Group">
<path id="Vector_42" d="M28.9657 23.1788C28.86 23.1701 27.9752 23.5543 26.9819 22.6653C25.9885 21.7762 26.4059 20.7747 26.4059 20.7747" stroke="black" stroke-width="0.427393" stroke-linecap="round" stroke-linejoin="round"/>
<path id="Vector_43" d="M27.0556 20.7189C27.0556 20.7189 26.3724 20.4405 25.7959 21.1699" stroke="black" stroke-width="0.427393" stroke-linecap="round" stroke-linejoin="round"/>
</g>
<path id="Vector_44" d="M29.6752 18.2461C29.6752 18.2461 31.0874 20.4025 30.684 20.7766C30.2806 21.1507 29.292 20.4939 29.292 20.4939" stroke="black" stroke-width="0.427393" stroke-linecap="round" stroke-linejoin="round"/>
</g>
</g>
</g>
<defs>
<clipPath id="clip0_302_3532">
<rect width="48" height="48" rx="24" fill="white"/>
</clipPath>
</defs>
</svg>
