<svg width="20" height="20" viewBox="0 0 20 20" fill="none" xmlns="http://www.w3.org/2000/svg">
<g id="bard-line">
<path id="Vector" d="M9.134 13.6221C8.92312 14.105 8.25485 14.105 8.044 13.6221L7.49547 12.3658C7.00732 11.2478 6.12868 10.3578 5.03269 9.87125L3.52286 9.20107C3.04283 8.988 3.04284 8.28968 3.52286 8.0766L4.98553 7.42734C6.10971 6.92833 7.00411 6.00538 7.48392 4.8492L8.03956 3.51033C8.24574 3.01348 8.93225 3.01348 9.13844 3.51033L9.69406 4.84922C10.1739 6.00538 11.0683 6.92833 12.1924 7.42734L13.6551 8.0766C14.1351 8.28968 14.1351 8.988 13.6551 9.20107L12.1453 9.87125C11.0493 10.3578 10.1707 11.2478 9.6825 12.3658L9.134 13.6221ZM5.33722 8.63884C6.76587 9.273 7.92751 10.3154 8.58899 11.7496C9.2505 10.3154 10.4121 9.273 11.8407 8.63884C10.3951 7.99711 9.22975 6.90392 8.58899 5.44418C7.94824 6.90393 6.78292 7.99711 5.33722 8.63884ZM14.6259 16.6811L14.7801 16.3275C15.0551 15.6971 15.5504 15.1952 16.1684 14.9206L16.6437 14.7094C16.9008 14.5953 16.9008 14.2217 16.6437 14.1075L16.1951 13.9081C15.5611 13.6265 15.0569 13.106 14.7866 12.4542L14.6283 12.0721C14.5178 11.8059 14.1497 11.8059 14.0393 12.0721L13.8809 12.4542C13.6106 13.106 13.1064 13.6265 12.4725 13.9081L12.0238 14.1075C11.7668 14.2217 11.7668 14.5953 12.0238 14.7094L12.4991 14.9206C13.1171 15.1952 13.6124 15.6971 13.8874 16.3275L14.0417 16.6811C14.1546 16.9399 14.5129 16.9399 14.6259 16.6811ZM13.9841 14.4042L14.3356 14.0551L14.6799 14.4042L14.3356 14.7435L13.9841 14.4042Z" fill="#525866"/>
</g>
</svg>
