<svg width="20" height="20" viewBox="0 0 20 20" fill="none" xmlns="http://www.w3.org/2000/svg">
<g id="book-2-line">
<path id="Vector" d="M16.75 14.5H5.5C5.30109 14.5 5.11032 14.579 4.96967 14.7197C4.82902 14.8603 4.75 15.0511 4.75 15.25C4.75 15.4489 4.82902 15.6397 4.96967 15.7803C5.11032 15.921 5.30109 16 5.5 16H16.75V17.5H5.5C4.90326 17.5 4.33097 17.2629 3.90901 16.841C3.48705 16.419 3.25 15.8467 3.25 15.25V4C3.25 3.60218 3.40804 3.22064 3.68934 2.93934C3.97064 2.65804 4.35218 2.5 4.75 2.5H16.75V14.5ZM4.75 13.0375C4.8715 13.0127 4.99675 13 5.125 13H15.25V4H4.75V13.0375ZM13 7.75H7V6.25H13V7.75Z" fill="#525866"/>
</g>
</svg>
