<svg width="20" height="20" viewBox="0 0 20 20" fill="none" xmlns="http://www.w3.org/2000/svg">
<g id="hand-coin-line">
<path id="Vector" d="M4.75 7.75C4.94891 7.75 5.13968 7.82902 5.28033 7.96967C5.42098 8.11032 5.5 8.30109 5.5 8.5C6.67836 8.49826 7.82274 8.8947 8.7475 9.625H10.375C11.3748 9.625 12.2725 10.06 12.8905 10.75H15.25C15.9589 10.7498 16.6534 10.9506 17.2529 11.329C17.8524 11.7075 18.3323 12.2481 18.637 12.8883C16.8633 15.229 13.9915 16.75 10.75 16.75C8.6575 16.75 6.8875 16.2977 5.455 15.5065C5.40253 15.6513 5.30668 15.7764 5.18051 15.8647C5.05435 15.953 4.90401 16.0003 4.75 16H2.5C2.30109 16 2.11032 15.921 1.96967 15.7803C1.82902 15.6397 1.75 15.4489 1.75 15.25V8.5C1.75 8.30109 1.82902 8.11032 1.96967 7.96967C2.11032 7.82902 2.30109 7.75 2.5 7.75H4.75ZM5.50075 10L5.5 13.7665L5.53375 13.7905C6.88 14.7355 8.6335 15.25 10.75 15.25C13.003 15.25 15.0992 14.383 16.6262 12.9025L16.726 12.8028L16.636 12.7277C16.2818 12.4504 15.8526 12.2858 15.4037 12.2552L15.25 12.25H13.6667C13.7207 12.4915 13.75 12.742 13.75 13V13.75H7V12.25L12.0925 12.2492L12.067 12.1908C11.9233 11.8904 11.7022 11.6337 11.4264 11.4471C11.1507 11.2605 10.8302 11.1506 10.498 11.1287L10.375 11.125H8.1775C7.82899 10.7685 7.4127 10.4854 6.95314 10.2922C6.49358 10.099 6.00002 9.99964 5.5015 10H5.50075ZM4 9.25H3.25V14.5H4V9.25ZM14.5 4.75C15.0967 4.75 15.669 4.98705 16.091 5.40901C16.5129 5.83097 16.75 6.40326 16.75 7C16.75 7.59674 16.5129 8.16903 16.091 8.59099C15.669 9.01295 15.0967 9.25 14.5 9.25C13.9033 9.25 13.331 9.01295 12.909 8.59099C12.4871 8.16903 12.25 7.59674 12.25 7C12.25 6.40326 12.4871 5.83097 12.909 5.40901C13.331 4.98705 13.9033 4.75 14.5 4.75ZM14.5 6.25C14.3011 6.25 14.1103 6.32902 13.9697 6.46967C13.829 6.61032 13.75 6.80109 13.75 7C13.75 7.19891 13.829 7.38968 13.9697 7.53033C14.1103 7.67098 14.3011 7.75 14.5 7.75C14.6989 7.75 14.8897 7.67098 15.0303 7.53033C15.171 7.38968 15.25 7.19891 15.25 7C15.25 6.80109 15.171 6.61032 15.0303 6.46967C14.8897 6.32902 14.6989 6.25 14.5 6.25ZM9.25 2.5C9.84674 2.5 10.419 2.73705 10.841 3.15901C11.2629 3.58097 11.5 4.15326 11.5 4.75C11.5 5.34674 11.2629 5.91903 10.841 6.34099C10.419 6.76295 9.84674 7 9.25 7C8.65326 7 8.08097 6.76295 7.65901 6.34099C7.23705 5.91903 7 5.34674 7 4.75C7 4.15326 7.23705 3.58097 7.65901 3.15901C8.08097 2.73705 8.65326 2.5 9.25 2.5ZM9.25 4C9.05109 4 8.86032 4.07902 8.71967 4.21967C8.57902 4.36032 8.5 4.55109 8.5 4.75C8.5 4.94891 8.57902 5.13968 8.71967 5.28033C8.86032 5.42098 9.05109 5.5 9.25 5.5C9.44891 5.5 9.63968 5.42098 9.78033 5.28033C9.92098 5.13968 10 4.94891 10 4.75C10 4.55109 9.92098 4.36032 9.78033 4.21967C9.63968 4.07902 9.44891 4 9.25 4Z" fill="#525866"/>
</g>
</svg>
