<svg width="20" height="20" viewBox="0 0 20 20" fill="none" xmlns="http://www.w3.org/2000/svg">
<g id="sim-card-2-line">
<path id="Vector" d="M5.5 4V16H14.5V6.871L11.629 4H5.5ZM4.75 2.5H12.25L15.7803 6.03025C15.9209 6.17087 16 6.3616 16 6.5605V16.75C16 16.9489 15.921 17.1397 15.7803 17.2803C15.6397 17.421 15.4489 17.5 15.25 17.5H4.75C4.55109 17.5 4.36032 17.421 4.21967 17.2803C4.07902 17.1397 4 16.9489 4 16.75V3.25C4 3.05109 4.07902 2.86032 4.21967 2.71967C4.36032 2.57902 4.55109 2.5 4.75 2.5ZM10.75 8.5V14.5H9.25V10H7V8.5H10.75ZM7 10.75H8.5V12.25H7V10.75ZM11.5 10.75H13V12.25H11.5V10.75ZM11.5 8.5H13V10H11.5V8.5ZM7 13H8.5V14.5H7V13ZM11.5 13H13V14.5H11.5V13Z" fill="#525866"/>
</g>
</svg>
